<svg width="512" height="512" viewBox="0 0 512 512" fill="none" xmlns="http://www.w3.org/2000/svg">
<path d="M133.397 40.8439C149.435 44.4508 161.245 50.068 170.175 56.565C209.427 45.6714 254.907 41.2857 297.875 45.5014C254.268 -3.75328 193.715 -9.74041 131.655 11.9079C116.724 17.1162 118.691 37.8788 133.397 40.8439ZM69.7126 311.718C99.5074 285.715 133.46 279.767 170.628 294.039C205.152 307.724 261.611 323.886 313.097 332.181C309.384 326.341 309.352 326.304 309.099 325.867C295.212 301.729 264.755 239.086 281.82 178.899C291.878 143.43 316.447 114.894 354.848 94.0814C355.162 93.9054 355.105 93.9374 361.337 90.5275C314.479 72.798 261.235 70.2328 212.012 78.1523C167.467 85.2781 144.233 96.5156 122.415 110.935C16.3342 180.96 -13.9844 275.917 5.56755 355.621L5.57455 355.644C28.4924 448.977 124.31 507.417 128.377 509.859C130.662 511.231 133.284 511.999 136.222 511.999C140.424 511.999 166.805 511.11 185.118 489.541C201.303 470.477 205.909 442.099 198.806 405.197C197.006 395.839 186.904 390.425 178.028 394.311C177.78 394.419 152.897 405.144 122.552 404.005C86.0965 402.633 57.4354 385.079 37.2557 351.799C42.4601 342.751 53.3727 325.977 69.7126 311.718Z" fill="black"/>
<path d="M511.794 301.725C498.604 215.783 460.976 145.305 394.723 106.448C359.778 125.57 371.833 118.979 369.224 120.402C338.148 137.223 318.449 159.657 310.674 187.08C296.786 236.06 322.869 289.586 334.934 310.629L351.761 337.097C401.895 341.668 453.916 338.907 497.862 320.09C503.089 317.851 506.809 316.545 509.624 312.134C511.595 309.046 512.367 305.343 511.794 301.725ZM400.14 223.089C391.489 223.089 385.018 216.181 385.018 208.094C385.018 199.993 391.501 193.099 400.14 193.099C408.421 193.099 415.135 199.812 415.135 208.094C415.135 216.375 408.421 223.089 400.14 223.089Z" fill="black"/>
</svg>
